<svg width="103" height="105" viewBox="0 0 103 105" fill="none" xmlns="http://www.w3.org/2000/svg">
<path d="M68.3331 49.875C68.3331 53.0775 65.6846 55.7025 62.3297 55.7025C59.0337 55.7025 56.3263 53.0775 56.3263 49.875C56.3263 46.6725 58.9749 44.0475 62.3297 44.0475C65.6846 44.0475 68.3331 46.6725 68.3331 49.875ZM40.8469 44.0475C37.492 44.0475 34.8434 46.6725 34.8434 49.875C34.8434 53.0775 37.5509 55.7025 40.8469 55.7025C44.2017 55.7025 46.8503 53.0775 46.8503 49.875C46.9091 46.6725 44.2017 44.0475 40.8469 44.0475ZM103 10.815V105C88.1721 93.3118 92.9143 97.1808 75.6903 82.8975L78.8097 92.61H12.0657C5.41486 92.61 0 87.78 0 81.795V10.815C0 4.83 5.41486 0 12.0657 0H90.9343C97.5851 0 103 4.83 103 10.815ZM86.2257 60.585C86.2257 43.68 77.7503 29.9775 77.7503 29.9775C69.2749 24.3075 61.2114 24.465 61.2114 24.465L60.3874 25.305C70.3931 28.035 75.0429 31.9725 75.0429 31.9725C61.0618 25.1375 44.6385 25.1362 31.0766 30.45C28.8989 31.3425 27.604 31.9725 27.604 31.9725C27.604 31.9725 32.4891 27.825 43.0834 25.095L42.4949 24.465C42.4949 24.465 34.4314 24.3075 25.956 29.9775C25.956 29.9775 17.4806 43.68 17.4806 60.585C17.4806 60.585 22.4246 68.1975 35.432 68.565C35.432 68.565 37.6097 66.2025 39.3754 64.2075C31.9006 62.2125 29.0754 58.0125 29.0754 58.0125C29.9413 58.5531 31.369 59.2538 31.4886 59.325C41.423 64.2875 55.5345 65.9133 68.2154 61.1625C70.2754 60.48 72.5709 59.4825 74.984 58.065C74.984 58.065 72.0411 62.37 64.3309 64.3125C66.0966 66.3075 68.2154 68.565 68.2154 68.565C81.2229 68.1975 86.2257 60.585 86.2257 60.585V60.585Z" fill="white"/>
</svg>
