<svg width="131" height="160" viewBox="0 0 131 160" fill="none" xmlns="http://www.w3.org/2000/svg">
<path d="M64.0893 38.5281C64.3972 38.6844 64.6436 39.0593 65.0131 39.0593C65.3518 39.0593 65.8753 38.9344 65.9061 38.5906C65.9677 38.1532 65.321 37.8719 64.9207 37.6845C64.3972 37.4657 63.7198 37.372 63.2271 37.6532C63.1039 37.7157 62.9807 37.8719 63.0423 37.9969C63.1347 38.4031 63.7506 38.3407 64.0893 38.5281V38.5281ZM57.3455 39.0593C57.715 39.0593 57.9614 38.6844 58.2693 38.5281C58.6081 38.3407 59.2239 38.4031 59.3471 38.0282C59.4087 37.9032 59.2855 37.747 59.1623 37.6845C58.6696 37.4032 57.9922 37.497 57.4687 37.7157C57.0684 37.9032 56.4217 38.1844 56.4833 38.6219C56.5141 38.9344 57.0376 39.0906 57.3455 39.0593V39.0593ZM125.43 126.177C124.321 124.927 123.798 122.552 123.213 120.021C122.659 117.49 122.012 114.772 119.979 113.022C119.579 112.678 119.179 112.366 118.748 112.116C118.347 111.866 117.916 111.647 117.485 111.491C120.318 102.96 119.21 94.461 116.346 86.7741C112.835 77.3687 106.707 69.1506 102.027 63.5261C96.7612 56.8079 91.6495 50.4334 91.7419 41.0279C91.8958 26.6854 93.3123 0.0313378 68.4004 9.03595e-05C36.8679 -0.0624044 44.751 32.3099 44.4123 42.2466C43.8888 49.5585 42.4415 55.308 37.4837 62.4636C31.6638 69.4943 23.4727 80.8371 19.5927 92.6799C17.7451 98.2732 16.8829 103.96 17.6835 109.335C15.6819 111.147 14.1731 113.928 12.5718 115.647C11.2785 116.99 9.40006 117.49 7.3369 118.24C5.27374 118.99 3.02581 120.115 1.6401 122.771C0.993442 123.99 0.777887 125.302 0.777887 126.646C0.777887 127.864 0.962648 129.114 1.14741 130.333C1.51693 132.864 1.91725 135.239 1.39376 136.832C-0.207504 141.332 -0.423059 144.457 0.7163 146.738C1.88645 149.019 4.22676 150.019 6.90579 150.581C12.2331 151.706 19.4695 151.425 25.1663 154.487C31.2634 157.737 37.4529 158.893 42.3799 157.737C45.9519 156.925 48.8773 154.737 50.3554 151.425C54.2046 151.394 58.4541 149.738 65.2287 149.363C69.8169 148.988 75.5753 151.019 82.1959 150.644C82.3806 151.362 82.627 152.081 82.9657 152.737V152.769C85.5216 157.987 90.2946 160.362 95.3755 159.956C100.487 159.549 105.876 156.518 110.249 151.238C114.437 146.113 121.334 143.988 125.923 141.176C128.201 139.77 130.049 138.02 130.203 135.458C130.326 132.895 128.848 130.052 125.43 126.177ZM64.9823 27.2791C68.0001 20.3421 75.5137 20.4671 78.5314 27.1541C80.533 31.5912 79.64 36.8095 77.2073 39.778C76.7146 39.5281 75.3905 38.9656 73.3273 38.2469C73.6661 37.8719 74.2819 37.4032 74.5283 36.8095C76.0064 33.1223 74.4667 28.3727 71.7261 28.279C69.4782 28.1228 67.4458 31.6537 68.0925 35.4659C66.8299 34.8409 65.1979 34.3722 64.0893 34.091C63.7814 31.9349 63.9969 29.5289 64.9823 27.2791V27.2791ZM52.4494 23.6856C55.5595 23.6856 58.8544 28.1228 58.3309 34.1535C57.2531 34.466 56.1446 34.9347 55.19 35.5909C55.5595 32.8099 54.1738 29.3102 52.2338 29.4664C49.6472 29.6851 49.216 36.0908 51.6795 38.2469C51.9875 38.4969 52.2646 38.1844 49.8627 39.9655C45.0589 35.4034 46.6294 23.6856 52.4494 23.6856V23.6856ZM48.2614 42.6528C50.1706 41.2154 52.4494 39.5281 52.6033 39.3718C54.0506 37.9969 56.7604 34.9347 61.1947 34.9347C63.381 34.9347 65.9985 35.6534 69.1702 37.7157C71.1102 38.9968 72.6499 39.0906 76.1296 40.6217C78.7162 41.7154 80.3483 43.6527 79.3629 46.3087C78.5622 48.5273 75.9756 50.8084 72.3727 51.9645C68.9547 53.0894 66.2756 56.9641 60.6096 56.6204C59.4087 56.5579 58.4541 56.3079 57.6535 55.9642C55.19 54.8705 53.8967 52.7145 51.4948 51.2771C48.8465 49.7772 47.43 48.0273 46.9681 46.4962C46.537 44.9651 46.9681 43.684 48.2614 42.6528V42.6528ZM49.2776 147.019C48.4462 157.987 35.7593 157.768 26.0901 152.644C16.8829 147.707 4.9658 150.613 2.53312 145.8C1.79407 144.332 1.79407 141.832 3.33375 137.551V137.489C4.07279 135.114 3.51851 132.489 3.14899 130.021C2.77946 127.583 2.5947 125.333 3.42613 123.771C4.5039 121.677 6.04357 120.928 7.98356 120.24C11.1553 119.084 11.6172 119.178 14.0191 117.147C15.7127 115.365 16.9445 113.116 18.4226 111.522C19.993 109.803 21.5019 108.991 23.873 109.366C26.3673 109.741 28.5228 111.491 30.6168 114.366L36.6523 125.49C39.5777 131.708 49.9243 140.613 49.2776 147.019V147.019ZM48.8465 138.926C47.584 136.864 45.8903 134.676 44.4123 132.802C46.5986 132.802 48.7849 132.114 49.5548 130.021C50.263 128.083 49.5548 125.365 47.2761 122.24C43.1189 116.553 35.4821 112.085 35.4821 112.085C31.325 109.46 28.9847 106.241 27.907 102.742C26.8292 99.2418 26.9831 95.4609 27.8146 91.7425C29.4158 84.5868 33.5422 77.6186 36.1904 73.244C36.8986 72.7128 36.4367 74.2439 33.5114 79.7435C30.8939 84.7743 25.9978 96.3983 32.7107 105.491C32.8955 99.0231 34.4044 92.4299 36.9602 86.2742C40.6555 77.7124 48.4462 62.8699 49.0621 51.0583C49.4008 51.3083 50.4786 52.0583 50.9713 52.3395C52.3878 53.1832 53.4655 54.4331 54.8513 55.558C58.6696 58.6827 63.6274 58.4327 67.9077 55.9329C69.8169 54.8393 71.3566 53.5894 72.8039 53.1207C75.8524 52.152 78.2851 50.4334 79.6708 48.4336C82.0419 57.9328 87.5847 71.6504 91.126 78.3373C93.0044 81.8995 96.7612 89.4301 98.3932 98.5231C99.4094 98.4919 100.549 98.6481 101.75 98.9606C105.999 87.8053 98.1469 75.775 94.5748 72.4316C93.1276 70.9942 93.066 70.3692 93.7742 70.4005C97.6542 73.9002 102.766 80.9309 104.614 88.8364C105.476 92.4611 105.63 96.2421 104.737 99.9918C109.787 102.117 115.792 105.585 114.19 110.866C113.513 110.835 113.205 110.866 112.897 110.866C113.882 107.71 111.696 105.366 105.876 102.71C99.8405 100.023 94.7904 100.023 94.0822 106.616C90.3561 107.929 88.4469 111.21 87.4923 115.147C86.6301 118.646 86.3838 122.865 86.1374 127.614C85.9835 130.021 85.0289 133.239 84.0435 136.676C74.1588 143.832 60.4249 146.957 48.8465 138.926V138.926ZM128.109 135.333C127.832 140.582 115.422 141.551 108.647 149.863C104.583 154.768 99.5942 157.487 95.2215 157.831C90.8488 158.174 87.0612 156.331 84.8441 151.8C83.3968 148.331 84.1051 144.582 85.1828 140.457C86.3222 136.02 88.0158 131.458 88.2314 127.771C88.4777 123.021 88.7549 118.865 89.5247 115.678C90.3253 112.459 91.5571 110.303 93.7434 109.085C93.8358 109.022 93.959 108.991 94.0514 108.929C94.2977 113.053 96.2993 117.24 99.8405 118.147C103.721 119.178 109.294 115.803 111.665 113.053C114.437 112.959 116.5 112.772 118.625 114.647C121.673 117.303 120.811 124.115 123.89 127.646C127.154 131.27 128.201 133.739 128.109 135.333ZM49.4624 46.465C50.0783 47.0587 50.9097 47.8711 51.9259 48.6835C53.9582 50.3084 56.7912 51.9958 60.3325 51.9958C63.9045 51.9958 67.261 50.1522 70.1248 48.621C71.6337 47.8086 73.4813 46.4337 74.6823 45.3713C75.8832 44.3089 76.4991 43.4027 75.6369 43.309C74.7746 43.2152 74.8362 44.1214 73.7892 44.9026C72.4343 45.9025 70.8023 47.2149 69.509 47.9649C67.2302 49.2772 63.5042 51.1521 60.3017 51.1521C57.0992 51.1521 54.5433 49.6522 52.6341 48.1211C51.6795 47.3399 50.8789 46.5587 50.263 45.965C49.8011 45.5276 49.6779 44.5276 48.9389 44.4339C48.5078 44.4026 48.3846 45.59 49.4624 46.465V46.465Z" fill="white"/>
</svg>
