<svg width="151" height="164" viewBox="0 0 151 164" fill="none" xmlns="http://www.w3.org/2000/svg">
<path d="M147.357 24.5033H129.432C125.052 8.57156 99.9928 12.6607 100.545 21.7284C100.754 35.2981 134.196 28.5735 146.681 43.5225C158.056 59.2937 144.701 80.435 116.188 80.3703C93.8865 80.0669 81.1423 68.322 81.2468 54.947H98.8676C102.915 65.9001 120.442 70.078 129.952 61.4846C133.396 57.0855 134.684 51.1168 115.155 47.4473C91.8823 43.0747 81.7727 37.7437 81.4918 22.3834C82.6051 10.4242 92.3744 2.19895 108.584 0H118.664C133.887 1.43692 145.192 9.41591 147.357 24.5033H147.357ZM0 0H25.702L39.2716 45.8444L49.3893 0H78.4798L78.4965 79.7421H60.9647L59.8158 36.1614L49.4149 79.7421H30.7842L18.2464 36.1614L18.1363 79.7421H0V0ZM38.4985 144.569C50.9162 144.023 51.5129 128.157 52.5347 116.202C53.3982 106.096 61.7518 96.5883 78.9316 97.0159C81.7623 92.003 86.2782 87.7749 91.5335 84.5763C47.9235 73.3682 22.2475 107.275 38.4985 144.569V144.569ZM100.895 127.182C68.7649 122.315 70.8871 79.5198 118.203 83.229C137.269 85.3463 146.595 94.1283 147.843 107.897H130.108C126.794 90.5459 93.1283 95.9157 97.5071 107.137C102.204 118.141 101.817 117.852 100.895 127.182V127.182ZM68.742 101.076C85.3095 127.41 71.0049 163.548 29.9733 161.927L0 160.872V85.2665L32.529 84.5545C37.8985 84.5398 43.5522 85.5708 48.664 87.0094C45.4808 88.8944 39.2912 93.938 36.7918 100.408H18.0433V147.173C18.0433 147.173 36.9186 147.227 40.5895 147.173C50.8065 145.255 55.1931 135.967 55.3658 122.261C55.4877 112.549 58.6917 104.657 68.742 101.076V101.076ZM100.232 104.851C100.786 100.735 108.757 98.9237 116.91 99.8055C126.659 115.28 125.871 130.997 116.666 146.91C108.899 147.707 99.4843 144.732 100.397 139.98C109.046 117.289 102.051 117.017 100.232 104.851V104.851ZM115.74 149.371C134.845 149.827 137.498 137.549 125.432 132.889C126.593 127.485 126.97 122.439 126.289 117.879C156.97 123.059 153.31 146.1 145.219 153.354C127.241 171.021 75.6027 165.315 78.3405 137.092H95.6862C97.1776 145.598 103.264 149.347 115.74 149.371H115.74ZM57.1666 160.359C60.0507 158.386 66.3059 154.022 70.3223 148.147C72.5949 147.841 75.2395 147.84 77.2801 148.18C80.2795 154.095 86.0377 158.543 92.2181 161.971C80.9759 165.109 69.9238 164.635 57.1666 160.359Z" fill="white"/>
</svg>
