<svg width="123" height="122" viewBox="0 0 123 122" fill="none" xmlns="http://www.w3.org/2000/svg">
<path d="M122.01 47.1508C122.004 42.0103 119.958 37.0821 116.321 33.4472C112.684 29.8124 107.753 27.7677 102.609 27.7618C99.7269 27.7773 96.885 28.4419 94.2949 29.7063V19.4523C94.3002 15.5981 93.1543 11.8301 91.0041 8.63062C88.8538 5.43115 85.797 2.94585 82.2251 1.49293C78.6531 0.0400124 74.7285 -0.314403 70.9538 0.475063C67.1791 1.26453 63.726 3.16195 61.0367 5.92438C57.8454 2.6092 53.5749 0.541099 48.9938 0.0922148C44.4127 -0.356669 39.8216 0.84313 36.0468 3.47573C32.2719 6.10832 29.5611 10.0009 28.402 14.453C27.243 18.9051 27.7118 23.6244 29.7242 27.7618H19.464C15.6075 27.7566 11.8372 28.9017 8.63582 31.0507C5.43442 33.1996 2.94762 36.2546 1.49383 39.8244C0.0400365 43.3942 -0.314592 47.3164 0.475349 51.0889C1.26529 54.8613 3.16385 58.3123 5.92795 61C2.61077 64.1894 0.541425 68.4573 0.0922703 73.0357C-0.356884 77.6141 0.843637 82.2023 3.47782 85.9749C6.112 89.7475 10.0069 92.4567 14.4617 93.6151C18.9165 94.7734 23.6386 94.3049 27.7786 92.2937V102.548C27.7733 106.402 28.9191 110.17 31.0693 113.369C33.2196 116.569 36.2764 119.054 39.8484 120.507C43.4203 121.96 47.3449 122.314 51.1196 121.525C54.8944 120.735 58.3474 118.838 61.0367 116.076C64.2281 119.391 68.4985 121.459 73.0796 121.908C77.6608 122.357 82.2518 121.157 86.0267 118.524C89.8015 115.892 92.5124 111.999 93.6714 107.547C94.8305 103.095 94.3616 98.3756 92.3493 94.2381H102.609C106.466 94.2434 110.236 93.0983 113.438 90.9493C116.639 88.8004 119.126 85.7454 120.58 82.1756C122.033 78.6058 122.388 74.6835 121.598 70.9111C120.808 67.1386 118.91 63.6877 116.145 61C118 59.2009 119.475 57.0482 120.482 54.6693C121.489 52.2905 122.009 49.7339 122.01 47.1508V47.1508ZM66.5797 19.4523C66.5797 17.2485 67.4557 15.1349 69.015 13.5766C70.5743 12.0182 72.6891 11.1428 74.8943 11.1428C77.0994 11.1428 79.2143 12.0182 80.7735 13.5766C82.3328 15.1349 83.2088 17.2485 83.2088 19.4523V47.1508C83.2088 49.3546 82.3328 51.4682 80.7735 53.0265C79.2143 54.5848 77.0994 55.4603 74.8943 55.4603C72.6891 55.4603 70.5743 54.5848 69.015 53.0265C67.4557 51.4682 66.5797 49.3546 66.5797 47.1508V19.4523ZM27.7786 74.8492C27.7786 76.4927 27.2909 78.0993 26.3773 79.4658C25.4637 80.8322 24.1651 81.8973 22.6459 82.5262C21.1266 83.1552 19.4548 83.3197 17.8419 82.9991C16.2291 82.6785 14.7476 81.8871 13.5848 80.725C12.4219 79.5628 11.6301 78.0822 11.3092 76.4703C10.9884 74.8584 11.1531 73.1877 11.7824 71.6693C12.4117 70.1509 13.4774 68.8532 14.8447 67.9401C16.212 67.027 17.8196 66.5397 19.464 66.5397H27.7786V74.8492ZM55.4937 102.548C55.4937 104.752 54.6177 106.865 53.0584 108.423C51.4991 109.982 49.3843 110.857 47.1791 110.857C44.974 110.857 42.8592 109.982 41.2999 108.423C39.7406 106.865 38.8646 104.752 38.8646 102.548V74.8492C38.8646 72.6454 39.7406 70.5318 41.2999 68.9735C42.8592 67.4151 44.974 66.5397 47.1791 66.5397C49.3843 66.5397 51.4991 67.4151 53.0584 68.9735C54.6177 70.5318 55.4937 72.6454 55.4937 74.8492V102.548ZM47.1791 55.4603H19.464C17.2589 55.4603 15.144 54.5848 13.5848 53.0265C12.0255 51.4682 11.1495 49.3546 11.1495 47.1508C11.1495 44.9469 12.0255 42.8334 13.5848 41.275C15.144 39.7167 17.2589 38.8412 19.464 38.8412H47.1791C49.3843 38.8412 51.4991 39.7167 53.0584 41.275C54.6177 42.8334 55.4937 44.9469 55.4937 47.1508C55.4937 49.3546 54.6177 51.4682 53.0584 53.0265C51.4991 54.5848 49.3843 55.4603 47.1791 55.4603ZM55.4937 27.7618H47.1791C45.5347 27.7618 43.9272 27.2745 42.5598 26.3614C41.1925 25.4484 40.1268 24.1506 39.4975 22.6322C38.8682 21.1139 38.7036 19.4431 39.0244 17.8312C39.3452 16.2193 40.1371 14.7387 41.2999 13.5766C42.4627 12.4145 43.9442 11.6231 45.5571 11.3024C47.1699 10.9818 48.8417 11.1464 50.361 11.7753C51.8803 12.4042 53.1788 13.4693 54.0924 14.8358C55.0061 16.2023 55.4937 17.8088 55.4937 19.4523V27.7618ZM61.0367 61.3213C60.9307 61.213 60.8236 61.1059 60.7152 61L61.0367 60.6787L61.3582 61L61.0367 61.3213ZM74.8943 110.857C72.69 110.854 70.5769 109.978 69.0183 108.42C67.4596 106.862 66.5827 104.751 66.5797 102.548V94.2381H74.8943C77.0994 94.2381 79.2143 95.1136 80.7735 96.672C82.3328 98.2303 83.2088 100.344 83.2088 102.548C83.2088 104.752 82.3328 106.865 80.7735 108.423C79.2143 109.982 77.0994 110.857 74.8943 110.857ZM102.609 83.1588H74.8943C72.6891 83.1588 70.5743 82.2833 69.015 80.725C67.4557 79.1666 66.5797 77.053 66.5797 74.8492C66.5797 72.6454 67.4557 70.5318 69.015 68.9735C70.5743 67.4151 72.6891 66.5397 74.8943 66.5397H102.609C104.815 66.5397 106.929 67.4151 108.489 68.9735C110.048 70.5318 110.924 72.6454 110.924 74.8492C110.924 77.053 110.048 79.1666 108.489 80.725C106.929 82.2833 104.815 83.1588 102.609 83.1588ZM102.609 55.4603H94.2949V47.1508C94.2949 45.5073 94.7825 43.9007 95.6961 42.5342C96.6097 41.1677 97.9083 40.1027 99.4276 39.4738C100.947 38.8448 102.619 38.6803 104.231 39.0009C105.844 39.3215 107.326 40.1129 108.489 41.275C109.651 42.4371 110.443 43.9178 110.764 45.5297C111.085 47.1415 110.92 48.8123 110.291 50.3307C109.662 51.8491 108.596 53.1468 107.229 54.0599C105.861 54.973 104.254 55.4603 102.609 55.4603Z" fill="white"/>
</svg>
