<svg width="111" height="111" viewBox="0 0 111 111" fill="none" xmlns="http://www.w3.org/2000/svg">
<path d="M107.062 99.0394L84.2277 110.025C82.9362 110.651 81.4818 110.858 80.0668 110.619C78.6519 110.379 77.3467 109.705 76.3328 108.689L32.5954 68.7815L13.5346 83.2357C12.6761 83.892 11.6146 84.2261 10.535 84.1799C9.45548 84.1336 8.42641 83.7098 7.62729 82.9825L1.52229 77.4186C1.04512 76.9874 0.663386 76.4612 0.401582 75.8738C0.139779 75.2863 0.00369272 74.6506 0.00205955 74.0075C0.00042639 73.3644 0.133282 72.728 0.392099 72.1392C0.650916 71.5504 1.02998 71.0223 1.50495 70.5887L18.037 55.5031L1.50495 40.4175C1.02998 39.9839 0.650916 39.4557 0.392099 38.8669C0.133282 38.2782 0.00042639 37.6418 0.00205955 36.9987C0.00369272 36.3555 0.139779 35.7198 0.401582 35.1324C0.663386 34.5449 1.04512 34.0187 1.52229 33.5875L7.62729 28.0236C8.42641 27.2963 9.45548 26.8726 10.535 26.8263C11.6146 26.78 12.6761 27.1142 13.5346 27.7704L32.5954 42.242L76.3536 2.31673C77.3639 1.30121 78.6662 0.626611 80.0785 0.387183C81.4908 0.147755 82.9426 0.35546 84.2312 0.981271L107.087 11.9841C108.264 12.5495 109.256 13.4367 109.95 14.5429C110.644 15.6491 111.01 16.9291 111.006 18.2348V92.7956C111.006 95.4527 109.47 97.8912 107.069 99.0463L107.062 99.0394ZM83.2669 30.2957L50.0605 55.4996L83.2669 80.7035V30.2957Z" fill="white"/>
</svg>
